# xmcd
#
# Track frame offsets: 
#        150
#        12285
#        25535
#        35287
#        46687
#        57662
#        71478
#        82898
#        94620
#        106196
#        117233
#        124844
#        146750
#        158178
#        176704
#        191291
#        209007
#        222014
#        233125
#        248237
#        261044
#
# Disc length: 3666 seconds
#
# Revision: 0
# Processed by: cddbd v1.4PL0 Copyright (c) Steve Scherf et al.
# Submitted via: ExactAudioCopy v0.90b3
#
DISCID=1a0e5015
DTITLE=Glen Campbell - The Legacy (1961-2002) - Disc 2 of 4
DYEAR=2003
DGENRE=Country
TTITLE0=Galveston
TTITLE1=Where's The Playground, Susie?
TTITLE2=This Is Love
TTITLE3=True Grit
TTITLE4=Try A Little Kindness
TTITLE5=Honey Come Back
TTITLE6=One Pair Of Hands
TTITLE7=All I Have To Do Is Dream - Glen Campbell and Bobbie Gentry
TTITLE8=Everything A Man Could Ever Need
TTITLE9=It's Only Make Believe
TTITLE10=Pave Your Way To Tomorrow
TTITLE11=MacArthur Park
TTITLE12=Dream Baby (How Long Must I Dream)
TTITLE13=The Last Time I Saw Her
TTITLE14=I Say A Little Prayer - By The Time I Get To Phoenix (Medley)
TTITLE14=Glen Campbell and Anne Murray
TTITLE15=The Last Thing On My Mind
TTITLE16=I Knew Jesus (Before He Was A Star)
TTITLE17=I'm So Lonesome I Could Cry
TTITLE18=Houston (I'm Comin' To See You)
TTITLE19=Bonaparte's Retreat
TTITLE20=The Moon's A Harsh Mistress
EXTD=2003 Capitol Nashville
EXTT0=
EXTT1=
EXTT2=
EXTT3=
EXTT4=
EXTT5=
EXTT6=
EXTT7=
EXTT8=
EXTT9=
EXTT10=
EXTT11=
EXTT12=
EXTT13=
EXTT14=
EXTT15=
EXTT16=
EXTT17=
EXTT18=
EXTT19=
EXTT20=
PLAYORDER=
